<mxfile host="app.diagrams.net" modified="2024-09-26T11:24:19.418Z" agent="Mozilla/5.0 (Macintosh; Intel Mac OS X 10_15_7) AppleWebKit/537.36 (KHTML, like Gecko) Chrome/129.0.0.0 Safari/537.36" etag="C1OG2IMs-YJpWGpFSOat" version="24.5.4" type="device">
  <diagram name="Page-1" id="d2IusO9sLZ7V9F7qNhCA">
    <mxGraphModel dx="1266" dy="605" grid="1" gridSize="10" guides="1" tooltips="1" connect="1" arrows="1" fold="1" page="1" pageScale="1" pageWidth="850" pageHeight="1100" math="0" shadow="0">
      <root>
        <mxCell id="0" />
        <mxCell id="1" parent="0" />
        <mxCell id="XYDMt4EkwB5AoKE7cghP-3" style="edgeStyle=orthogonalEdgeStyle;rounded=0;orthogonalLoop=1;jettySize=auto;html=1;" edge="1" parent="1" source="XYDMt4EkwB5AoKE7cghP-1" target="XYDMt4EkwB5AoKE7cghP-2">
          <mxGeometry relative="1" as="geometry" />
        </mxCell>
        <mxCell id="XYDMt4EkwB5AoKE7cghP-1" value="Actor" style="shape=umlActor;verticalLabelPosition=bottom;verticalAlign=top;html=1;outlineConnect=0;" vertex="1" parent="1">
          <mxGeometry x="120" y="200" width="30" height="60" as="geometry" />
        </mxCell>
        <mxCell id="XYDMt4EkwB5AoKE7cghP-5" style="edgeStyle=orthogonalEdgeStyle;rounded=0;orthogonalLoop=1;jettySize=auto;html=1;" edge="1" parent="1" source="XYDMt4EkwB5AoKE7cghP-2" target="XYDMt4EkwB5AoKE7cghP-4">
          <mxGeometry relative="1" as="geometry" />
        </mxCell>
        <mxCell id="XYDMt4EkwB5AoKE7cghP-2" value="" style="sketch=0;outlineConnect=0;fontColor=#232F3E;gradientColor=none;fillColor=#232F3D;strokeColor=none;dashed=0;verticalLabelPosition=bottom;verticalAlign=top;align=center;html=1;fontSize=12;fontStyle=0;aspect=fixed;pointerEvents=1;shape=mxgraph.aws4.mobile_client;" vertex="1" parent="1">
          <mxGeometry x="270" y="191" width="41" height="78" as="geometry" />
        </mxCell>
        <mxCell id="XYDMt4EkwB5AoKE7cghP-4" value="" style="sketch=0;outlineConnect=0;fontColor=#232F3E;gradientColor=none;fillColor=#8C4FFF;strokeColor=none;dashed=0;verticalLabelPosition=bottom;verticalAlign=top;align=center;html=1;fontSize=12;fontStyle=0;aspect=fixed;pointerEvents=1;shape=mxgraph.aws4.application_load_balancer;" vertex="1" parent="1">
          <mxGeometry x="410" y="191" width="78" height="78" as="geometry" />
        </mxCell>
      </root>
    </mxGraphModel>
  </diagram>
</mxfile>
